PathFileType	4	(X/Y/Z)	/Users/whiskymisky/masters/Sports2D_results/trial_4_Sports2D/trial_4_Sports2D_px_person00.trc
DataRate	CameraRate	NumFrames	NumMarkers	Units	OrigDataRate	OrigDataStartFrame	OrigNumFrames
50	50	10	22	m	50	686	1098
Frame#	Time	Hip			RHip			RKnee			RAnkle			RBigToe			RSmallToe			RHeel			LHip			LKnee			LAnkle			LBigToe			LSmallToe			LHeel			Neck			Head			Nose			RShoulder			RElbow			RWrist			LShoulder			LElbow			LWrist		
		X1	Y1	Z1	X2	Y2	Z2	X3	Y3	Z3	X4	Y4	Z4	X5	Y5	Z5	X6	Y6	Z6	X7	Y7	Z7	X8	Y8	Z8	X9	Y9	Z9	X10	Y10	Z10	X11	Y11	Z11	X12	Y12	Z12	X13	Y13	Z13	X14	Y14	Z14	X15	Y15	Z15	X16	Y16	Z16	X17	Y17	Z17	X18	Y18	Z18	X19	Y19	Z19	X20	Y20	Z20	X21	Y21	Z21	X22	Y22	Z22
686	13.72	951.2517064704984	619.4809635902286	0.0	918.0357074473683	633.1093660042022	0.0	889.40040839616	763.953173809296	0.0	870.8033537106382	876.639974189587	0.0	873.3189804640492	913.0226091663887	0.0	851.4552596075036	908.7260674904795	0.0	875.3882636877647	889.8272167344066	0.0	983.1645480247475	633.2057320061332	0.0	1003.4921854662324	762.8279950815943	0.0	1023.8946809627743	865.0912912740961	0.0	1036.602356331111	899.0790567656536	0.0	1050.4081814594456	892.8335252664353	0.0	1017.2210065283497	877.4457407012771	0.0	953.9674724573985	441.653257990978	0.0	950.1480286510956	358.9733601689885	0.0	949.6036864650705	402.77217707605286	0.0	899.6320386668543	462.94356970482903	0.0	821.761492633901	474.3731755174921	0.0	794.4151763299981	409.05556592525375	0.0	1010.4094698548536	461.1426772096214	0.0	1082.1576956200797	475.3162793748675	0.0	1109.8588680722644	411.59417544351373	0.0
687	13.74	951.2690272138004	619.3963082895916	0.0	918.0145751450871	632.9523938603659	0.0	889.4189416680812	764.0161142461026	0.0	870.6906158350383	876.7334244226204	0.0	873.3644820827174	912.8325605068746	0.0	851.6983181425381	908.7669496840928	0.0	875.1699327888715	889.8525586770736	0.0	983.2662947311288	633.1866375108245	0.0	1003.615462949931	763.0369128906416	0.0	1024.3712235641967	865.2651453114887	0.0	1037.0583397514083	899.3073900706243	0.0	1050.8202222869218	892.8979763735091	0.0	1017.3776792074023	877.650281780725	0.0	954.2731150975885	441.72716173416484	0.0	950.308106869542	359.0736007128407	0.0	949.5682808295611	402.8090630699756	0.0	899.8274824337077	462.7178397668656	0.0	821.9144143914756	473.8316233422265	0.0	795.1117962314349	407.57760876173813	0.0	1010.608612020154	461.220470156196	0.0	1081.9551027515115	475.1634078935754	0.0	1107.4076616310826	410.5874922260358	0.0
688	13.76	951.2360418938213	619.2633739119965	0.0	918.0489560783939	632.6581805417609	0.0	889.3722060029978	764.1974093441909	0.0	870.6637947294781	876.7226892250297	0.0	873.3590060275516	912.5642397250567	0.0	852.0361166096648	908.7681883358615	0.0	875.1476645193517	889.7385676541174	0.0	983.4989477369622	633.1767715503023	0.0	1003.7202059694748	763.0366991416578	0.0	1024.6882239751403	865.4003494879056	0.0	1037.6301197353712	899.4153381558482	0.0	1051.270755280769	892.7943796955349	0.0	1017.4178255148669	877.7837731572994	0.0	954.520707888473	441.9835665285523	0.0	950.5232150399737	359.1302495338749	0.0	949.7720235405277	402.8587038600156	0.0	900.0419002337946	462.61452422246197	0.0	822.0601593716339	473.4409130554948	0.0	795.783005705113	406.3266539101913	0.0	1010.9592573405936	461.3018829501313	0.0	1082.0534367112443	474.92208028612924	0.0	1104.7064731940904	409.5303285515765	0.0
689	13.780000000000001	951.2068058134073	619.26956022304	0.0	918.1142795193236	632.4246568677031	0.0	889.3068124639482	764.5866698070384	0.0	870.6883387138023	876.7719938787341	0.0	873.1423497606737	912.4028591675883	0.0	852.1680383112956	908.7969065699226	0.0	875.3151321343661	889.6193980202215	0.0	983.7613559745519	633.2750958153412	0.0	1003.7874244182772	762.9168352920884	0.0	1024.7768178888884	865.5472173705509	0.0	1038.0690381035217	899.2887246321447	0.0	1051.6523804767305	892.5675131857172	0.0	1017.3150264577636	877.8254178962862	0.0	954.6673040213079	442.3588479585601	0.0	950.8435393146493	359.14781794476465	0.0	950.1874643593492	402.9396067000689	0.0	900.2236182445298	462.64927042088254	0.0	822.2259572945137	473.1679201300695	0.0	796.3978189863412	405.51930379087753	0.0	1011.3625339689405	461.352834216555	0.0	1082.3046754298061	474.7564126867217	0.0	1102.3681592769367	408.78896053536505	0.0
690	13.8	951.2086397970332	619.3861005462209	0.0	918.213744541434	632.3102118315785	0.0	889.2973279327075	764.9680480051678	0.0	870.7323306858217	876.8202069434346	0.0	872.838114492331	912.3189153953639	0.0	852.0486690592847	908.7542584431794	0.0	875.4617181734241	889.4612041538677	0.0	983.9310208589616	633.4341188443468	0.0	1003.8764595581705	762.6868760999156	0.0	1024.6795869534656	865.7047060932839	0.0	1038.2119697730834	898.9648600777058	0.0	1051.8140624812675	892.3356323439002	0.0	1017.1225356490461	877.8090531448124	0.0	954.7443201076383	442.7502070883447	0.0	951.2187881558004	359.1842931714328	0.0	950.7108301315566	403.1115025487791	0.0	900.3184668539207	462.7601608233867	0.0	822.4056844045737	472.93919088594276	0.0	796.9578455547696	405.18219730674906	0.0	1011.6816045328444	461.3935075063801	0.0	1082.4433705556598	474.6698366904409	0.0	1100.774855711628	408.2182900751479	0.0
691	13.82	951.2552411236325	619.4383026201474	0.0	918.323349708885	632.2306146627835	0.0	889.3746207416417	765.1274325753798	0.0	870.7791380896269	876.7738954104714	0.0	872.6819160924267	912.2603764626126	0.0	851.8648577913298	908.579401428772	0.0	875.4320605745454	889.2470553447582	0.0	983.9523936680625	633.5520561412026	0.0	1004.0447350598713	762.3712155815684	0.0	1024.4725097889288	865.8247065782197	0.0	1038.10635110609	898.579834418659	0.0	1051.6938586949082	892.1456109319854	0.0	1016.9057518744332	877.75416909594	0.0	954.8126976875266	443.05841379995206	0.0	951.5691533364077	359.24067365344484	0.0	951.2472301777054	403.3664386117906	0.0	900.3342381321714	462.8596250796707	0.0	822.5742594137441	472.6806129254775	0.0	797.4839573018041	405.1312020805018	0.0	1011.8474765412199	461.44792238008444	0.0	1082.4649636876018	474.62351455655164	0.0	1099.8176862480157	407.5247300388057	0.0
692	13.84	951.3353092114164	619.3987062731941	0.0	918.3543168815838	632.183925041077	0.0	889.5126368276098	765.1321783279981	0.0	870.7976710045114	876.7653402958256	0.0	872.7029755111646	912.3008955288574	0.0	851.759294440347	908.4099717520993	0.0	875.3162090813037	889.1267446045323	0.0	983.8513013409276	633.6452251795863	0.0	1004.2669418952033	762.1037785223863	0.0	1024.2374369860295	865.906420080648	0.0	1037.9264312736286	898.2475478933964	0.0	1051.415442414772	891.9931688228077	0.0	1016.7247856390832	877.6735665091757	0.0	954.8871951799526	443.21346726914976	0.0	951.9137967965739	359.23798235975704	0.0	951.7444038821144	403.59399975033045	0.0	900.3091296276193	462.9093931065499	0.0	822.6973992787407	472.3928582939359	0.0	797.944349509558	405.15281550404524	0.0	1011.8796057859286	461.54215753111356	0.0	1082.6480929891334	474.6553937280296	0.0	1099.1328244323379	406.65769377241884	0.0
693	13.86	951.3743702084478	619.4098684177578	0.0	918.2567433588781	632.286002865389	0.0	889.6572510186155	765.1408857511191	0.0	870.7630138629011	876.8813588293785	0.0	872.8341441891306	912.4275682770744	0.0	851.7965632212729	908.330592041644	0.0	875.2498831975803	889.1964038368532	0.0	983.6705442488285	633.7866487702793	0.0	1004.4559810526704	762.0037938149749	0.0	1024.0197489597251	866.0277590459427	0.0	1037.7414902302362	898.0388193016876	0.0	1051.0863217797207	891.984624136825	0.0	1016.6183980490266	877.6354128194614	0.0	954.916328647789	443.2339820910813	0.0	952.3392487173854	359.1909409028333	0.0	952.1847631801932	403.7493974026584	0.0	900.1885167862312	462.9063798231843	0.0	822.7372939866501	472.1774733710688	0.0	798.2954286510271	405.20370183703204	0.0	1011.7855017191965	461.7756160080525	0.0	1083.0206280445148	474.7449433598328	0.0	1098.4422882322249	405.6864452553329	0.0
694	13.88	951.2784393977086	619.5325481680155	0.0	918.1045421594597	632.5668082718428	0.0	889.7692684032538	765.1335027098783	0.0	870.6596338655503	876.8869968931588	0.0	873.192937355831	912.4280045531148	0.0	852.0776664510778	908.1738171293193	0.0	875.1657857363736	889.3196502166552	0.0	983.4131830985314	633.9518503232457	0.0	1004.5384874602173	762.0461945099147	0.0	1023.7693884385571	866.2277857043946	0.0	1037.4452287085726	898.0129906861921	0.0	1050.594806000889	892.2925092955008	0.0	1016.5517315087567	877.7103294926447	0.0	954.8513297824466	443.2457595447973	0.0	952.8701530994642	359.28543814471243	0.0	952.5395782536434	403.9488046435083	0.0	899.8756342847349	462.8232353938898	0.0	822.6968136660748	472.1125054245942	0.0	798.5597463319729	405.39682426140985	0.0	1011.5272953951074	462.3070627935134	0.0	1083.0756938575394	474.74868207024133	0.0	1097.6940055078355	404.56319341773576	0.0
695	13.9	951.0210396527307	619.6316290893074	0.0	918.0080155225652	632.8949968485397	0.0	889.8601782638472	764.9805988824661	0.0	870.4802090863423	876.526566123532	0.0	873.9190808507999	912.1432544171962	0.0	852.6271477351485	907.7537604805711	0.0	874.9191893863403	889.318621894147	0.0	983.0660230406144	634.0449833423625	0.0	1004.5041629651658	762.108672093038	0.0	1023.399412822011	866.4115148897893	0.0	1036.946606910659	898.1824696631671	0.0	1049.8030328802574	892.9066311595553	0.0	1016.4101179655726	877.8778842469037	0.0	954.6971901011788	443.3788074055263	0.0	953.4260870891356	359.67790245019785	0.0	952.7709822924219	404.3048718457104	0.0	899.4224402553268	462.64513187818204	0.0	822.6374527147318	472.15096697180473	0.0	798.7880595962503	405.8226055611816	0.0	1011.1245670647982	463.184510151522	0.0	1082.306387402373	474.5871228209941	0.0	1096.9760008494727	403.2593767972369	0.0
